#!OML:ASF E:\motion texture\Top Level 1\Subject 1\Session 1\male.ASF
:FULLY-SPECIFIED
:DEGREES
161
root 10.038 17.9083 6.03546 525.643 -86.558 -521.661
lowerback -1.13657 -1.70638 -2.58229
upperback -1.07631 -2.26308 1.34912
thorax -0.312465 -1.11769 2.80912
lowerneck -9.96282 -2.10873 -6.98161
upperneck 28.8107 -3.89692 4.88357
head 11.1732 -2.30673 2.43719
rclavicle -1.04906e-015 -1.19768e-014
rhumerus -33.5536 -8.89965 -80.5359
rradius 70.2885
rwrist -22.4049
rhand -12.168 -37.4252
rfingers 7.12502
rthumb 13.8951 -66.941
lclavicle -1.04906e-015 -1.19768e-014
lhumerus -41.3719 14.224 87.4947
lradius 69.4631
lwrist 40.9516
lhand -11.4062 37.8877
lfingers 7.12502
lthumb 14.6292 67.3517
rfemur -34.6034 -8.47925 21.2219
rtibia 45.4486
rfoot -7.02721 -20.1633
rtoes 6.86869
lfemur -1.10795 -4.10326 -20.9294
ltibia 10.9583
lfoot -10.8656 1.27108
ltoes 2.10147
162
root 9.90578 17.8955 6.0345 525.441 -86.7688 -521.292
lowerback -1.20942 -1.79057 -2.66256
upperback -1.07564 -2.37356 1.43731
thorax -0.256659 -1.17351 2.94077
lowerneck -9.93497 -2.184 -7.01235
upperneck 28.5983 -3.98832 4.92055
head 11.0946 -2.34038 2.44297
rclavicle 7.72775e-015 3.57812e-015
rhumerus -34.0143 -9.06689 -80.1409
rradius 70.4559
rwrist -22.3223
rhand -12.4178 -37.6724
rfingers 7.12502
rthumb 13.6544 -67.2045
lclavicle 7.72775e-015 3.57812e-015
lhumerus -41.433 13.7575 87.6211
lradius 69.5828
lwrist 41.1385
lhand -11.3644 38.0735
lfingers 7.12502
lthumb 14.6694 67.5346
rfemur -34.7591 -8.46798 21.1785
rtibia 42.8461
rfoot -6.98964 -20.2696
rtoes 7.11465
lfemur -0.77747 -4.17867 -21.0464
ltibia 10.8951
lfoot -11.2278 1.17445
ltoes 1.99308
163
root 9.77349 17.8811 6.0328 525.357 -86.9763 -521.034
lowerback -1.28499 -1.86777 -2.73737
upperback -1.07549 -2.47465 1.51656
thorax -0.200512 -1.22477 3.05998
lowerneck -9.88176 -2.25534 -7.03308
upperneck 28.3602 -4.07469 4.95427
head 11.0009 -2.37105 2.44651
rclavicle -1.44274e-014 7.65321e-015
rhumerus -34.4343 -9.2516 -79.7556
rradius 70.5958
rwrist -22.2615
rhand -12.7105 -37.9492
rfingers 7.12502
rthumb 13.3723 -67.5
lclavicle -1.44274e-014 7.65321e-015
lhumerus -41.4125 13.2895 87.7355
lradius 69.6461
lwrist 41.2486
lhand -11.373 38.2724
lfingers 7.12502
lthumb 14.6612 67.7341
rfemur -34.8519 -8.38418 21.0966
rtibia 40.1223
rfoot -6.82371 -20.2908
rtoes 7.2883
lfemur -0.46023 -4.24858 -21.1651
ltibia 10.8423
lfoot -11.5905 1.07868
ltoes 1.86728
164
root 9.64111 17.8654 6.03043 525.431 -87.1751 -520.925
lowerback -1.35972 -1.93616 -2.80623
upperback -1.08038 -2.56406 1.58769
thorax -0.151 -1.27011 3.16762
lowerneck -9.80753 -2.32494 -7.05303
upperneck 28.1108 -4.16144 4.99456
head 10.8994 -2.40152 2.45245
rclavicle -3.0998e-015 6.16232e-015
rhumerus -34.8273 -9.45673 -79.3774
rradius 70.7218
rwrist -22.2285
rhand -12.9708 -38.194
rfingers 7.12502
rthumb 13.1213 -67.7612
lclavicle -3.0998e-015 6.16232e-015
lhumerus -41.3393 12.8259 87.8355
lradius 69.6824
lwrist 41.3026
lhand -11.4159 38.4696
lfingers 7.12502
lthumb 14.6198 67.9343
rfemur -34.893 -8.21027 20.9734
rtibia 37.3059
rfoot -6.53905 -20.224
rtoes 7.27726
lfemur -0.154964 -4.30985 -21.2833
ltibia 10.8012
lfoot -11.9607 0.985773
ltoes 1.72422
165
root 9.5083 17.848 6.02734 525.725 -87.366 -521.032
lowerback -1.43983 -1.99612 -2.87221
upperback -1.08595 -2.64206 1.65104
thorax -0.100116 -1.30982 3.2655
lowerneck -9.71457 -2.39132 -7.06284
upperneck 27.8509 -4.24492 5.03014
head 10.7902 -2.4304 2.45551
rclavicle -5.40446e-016 -1.51076e-014
rhumerus -35.1866 -9.68596 -79.0076
rradius 70.8271
rwrist -22.2323
rhand -13.2109 -38.4209
rfingers 7.12502
rthumb 12.8899 -68.0028
lclavicle -5.40446e-016 -1.51076e-014
lhumerus -41.2119 12.3765 87.9223
lradius 69.6984
lwrist 41.3297
lhand -11.4852 38.6531
lfingers 7.12502
lthumb 14.553 68.1226
rfemur -34.8777 -7.92935 20.7993
rtibia 34.4061
rfoot -6.21106 -20.0918
rtoes 7.12823
lfemur 0.142224 -4.35755 -21.4013
ltibia 10.7705
lfoot -12.3407 0.888719
ltoes 1.58375
166
root 9.37549 17.8291 6.02377 526.291 -87.5477 -521.402
lowerback -1.52218 -2.05503 -2.9387
upperback -1.095 -2.71857 1.71343
thorax -0.0513522 -1.34877 3.36251
lowerneck -9.62974 -2.45755 -7.07953
upperneck 27.6036 -4.32806 5.06847
head 10.6881 -2.45996 2.46094
rclavicle -1.76421e-015 -1.59028e-014
rhumerus -35.5184 -9.91847 -78.6469
rradius 70.9331
rwrist -22.2786
rhand -13.3545 -38.5764
rfingers 7.12502
rthumb 12.7514 -68.167
lclavicle -1.76421e-015 -1.59028e-014
lhumerus -41.0414 11.9698 87.9936
lradius 69.7162
lwrist 41.3364
lhand -11.5592 38.8387
lfingers 7.12502
lthumb 14.4818 68.3133
rfemur -34.8298 -7.52443 20.5648
rtibia 31.4741
rfoot -5.91014 -19.9033
rtoes 6.81323
lfemur 0.427397 -4.38641 -21.518
ltibia 10.7493
lfoot -12.7285 0.782568
ltoes 1.45183
167
root 9.24249 17.8088 6.01981 527.213 -87.7215 -522.124
lowerback -1.60257 -2.11032 -3.00587
upperback -1.10821 -2.79028 1.7716
thorax -0.00819638 -1.38521 3.45569
lowerneck -9.54773 -2.52315 -7.09652
upperneck 27.3728 -4.41135 5.10516
head 10.5933 -2.49049 2.46599
rclavicle -2.66496e-014 7.7526e-015
rhumerus -35.8294 -10.1617 -78.2925
rradius 71.0392
rwrist -22.3667
rhand -13.4083 -38.6683
rfingers 7.12502
rthumb 12.6996 -68.2621
lclavicle -2.66496e-014 7.7526e-015
lhumerus -40.851 11.6026 88.0463
lradius 69.7584
lwrist 41.3384
lhand -11.6314 39.0372
lfingers 7.12502
lthumb 14.4122 68.5168
rfemur -34.7476 -6.97594 20.2524
rtibia 28.5398
rfoot -5.70096 -19.6822
rtoes 6.36185
lfemur 0.702264 -4.39324 -21.6349
ltibia 10.7436
lfoot -13.1241 0.664031
ltoes 1.34585
